<mxfile host="app.diagrams.net" modified="2023-02-09T03:32:37.733Z" agent="5.0 (Windows NT 10.0; Win64; x64) AppleWebKit/537.36 (KHTML, like Gecko) Chrome/109.0.0.0 Safari/537.36" etag="QnyQWwy1FgcdF0hSmtI6" version="20.8.18" type="github" pages="2">
  <diagram name="新建工单" id="13e1069c-82ec-6db2-03f1-153e76fe0fe0">
    <mxGraphModel dx="1574" dy="849" grid="0" gridSize="10" guides="1" tooltips="1" connect="1" arrows="1" fold="1" page="0" pageScale="1" pageWidth="1100" pageHeight="850" background="none" math="0" shadow="0">
      <root>
        <mxCell id="0" />
        <mxCell id="1" parent="0" />
        <mxCell id="7baba1c4bc27f4b0-2" value=":Contoller" style="shape=umlLifeline;perimeter=lifelinePerimeter;whiteSpace=wrap;html=1;container=1;collapsible=0;recursiveResize=0;outlineConnect=0;rounded=1;shadow=0;comic=0;labelBackgroundColor=none;strokeWidth=1;fontFamily=Verdana;fontSize=12;align=center;" parent="1" vertex="1">
          <mxGeometry x="240" y="80" width="100" height="580" as="geometry" />
        </mxCell>
        <mxCell id="7baba1c4bc27f4b0-10" value="" style="html=1;points=[];perimeter=orthogonalPerimeter;rounded=0;shadow=0;comic=0;labelBackgroundColor=none;strokeWidth=1;fontFamily=Verdana;fontSize=12;align=center;" parent="7baba1c4bc27f4b0-2" vertex="1">
          <mxGeometry x="45" y="100" width="10" height="430" as="geometry" />
        </mxCell>
        <mxCell id="7baba1c4bc27f4b0-3" value=":Service" style="shape=umlLifeline;perimeter=lifelinePerimeter;whiteSpace=wrap;html=1;container=1;collapsible=0;recursiveResize=0;outlineConnect=0;rounded=1;shadow=0;comic=0;labelBackgroundColor=none;strokeWidth=1;fontFamily=Verdana;fontSize=12;align=center;" parent="1" vertex="1">
          <mxGeometry x="400" y="80" width="100" height="580" as="geometry" />
        </mxCell>
        <mxCell id="7baba1c4bc27f4b0-13" value="" style="html=1;points=[];perimeter=orthogonalPerimeter;rounded=0;shadow=0;comic=0;labelBackgroundColor=none;strokeWidth=1;fontFamily=Verdana;fontSize=12;align=center;" parent="7baba1c4bc27f4b0-3" vertex="1">
          <mxGeometry x="45" y="120" width="10" height="410" as="geometry" />
        </mxCell>
        <mxCell id="Xi-gDiXlF3DrVJnjN7YP-9" value="" style="html=1;points=[];perimeter=orthogonalPerimeter;outlineConnect=0;targetShapes=umlLifeline;portConstraint=eastwest;newEdgeStyle={&quot;edgeStyle&quot;:&quot;elbowEdgeStyle&quot;,&quot;elbow&quot;:&quot;vertical&quot;,&quot;curved&quot;:0,&quot;rounded&quot;:0};" vertex="1" parent="7baba1c4bc27f4b0-3">
          <mxGeometry x="50" y="313" width="10" height="40" as="geometry" />
        </mxCell>
        <mxCell id="Xi-gDiXlF3DrVJnjN7YP-10" value="重新封装数据" style="html=1;align=left;spacingLeft=2;endArrow=block;rounded=0;edgeStyle=orthogonalEdgeStyle;curved=0;rounded=0;" edge="1" target="Xi-gDiXlF3DrVJnjN7YP-9" parent="7baba1c4bc27f4b0-3">
          <mxGeometry x="0.1765" y="15" relative="1" as="geometry">
            <mxPoint x="55" y="260" as="sourcePoint" />
            <Array as="points">
              <mxPoint x="85" y="290" />
            </Array>
            <mxPoint as="offset" />
          </mxGeometry>
        </mxCell>
        <mxCell id="7baba1c4bc27f4b0-4" value=":Service" style="shape=umlLifeline;perimeter=lifelinePerimeter;whiteSpace=wrap;html=1;container=1;collapsible=0;recursiveResize=0;outlineConnect=0;rounded=1;shadow=0;comic=0;labelBackgroundColor=none;strokeWidth=1;fontFamily=Verdana;fontSize=12;align=center;" parent="1" vertex="1">
          <mxGeometry x="540" y="80" width="100" height="580" as="geometry" />
        </mxCell>
        <mxCell id="7baba1c4bc27f4b0-5" value=":Database" style="shape=umlLifeline;perimeter=lifelinePerimeter;whiteSpace=wrap;html=1;container=1;collapsible=0;recursiveResize=0;outlineConnect=0;rounded=1;shadow=0;comic=0;labelBackgroundColor=none;strokeWidth=1;fontFamily=Verdana;fontSize=12;align=center;" parent="1" vertex="1">
          <mxGeometry x="680" y="80" width="100" height="580" as="geometry" />
        </mxCell>
        <mxCell id="7baba1c4bc27f4b0-19" value="" style="html=1;points=[];perimeter=orthogonalPerimeter;rounded=0;shadow=0;comic=0;labelBackgroundColor=none;strokeWidth=1;fontFamily=Verdana;fontSize=12;align=center;" parent="7baba1c4bc27f4b0-5" vertex="1">
          <mxGeometry x="45" y="390" width="10" height="100" as="geometry" />
        </mxCell>
        <mxCell id="7baba1c4bc27f4b0-8" value=":User" style="shape=umlLifeline;perimeter=lifelinePerimeter;whiteSpace=wrap;html=1;container=1;collapsible=0;recursiveResize=0;outlineConnect=0;rounded=1;shadow=0;comic=0;labelBackgroundColor=none;strokeWidth=1;fontFamily=Verdana;fontSize=12;align=center;" parent="1" vertex="1">
          <mxGeometry x="100" y="80" width="100" height="580" as="geometry" />
        </mxCell>
        <mxCell id="7baba1c4bc27f4b0-9" value="" style="html=1;points=[];perimeter=orthogonalPerimeter;rounded=0;shadow=0;comic=0;labelBackgroundColor=none;strokeWidth=1;fontFamily=Verdana;fontSize=12;align=center;" parent="7baba1c4bc27f4b0-8" vertex="1">
          <mxGeometry x="45" y="100" width="10" height="440" as="geometry" />
        </mxCell>
        <mxCell id="7baba1c4bc27f4b0-16" value="" style="html=1;points=[];perimeter=orthogonalPerimeter;rounded=0;shadow=0;comic=0;labelBackgroundColor=none;strokeWidth=1;fontFamily=Verdana;fontSize=12;align=center;" parent="1" vertex="1">
          <mxGeometry x="585" y="220" width="10" height="180" as="geometry" />
        </mxCell>
        <mxCell id="7baba1c4bc27f4b0-17" value="模板id" style="html=1;verticalAlign=bottom;endArrow=block;labelBackgroundColor=none;fontFamily=Verdana;fontSize=12;edgeStyle=elbowEdgeStyle;elbow=vertical;" parent="1" source="7baba1c4bc27f4b0-13" target="7baba1c4bc27f4b0-16" edge="1">
          <mxGeometry y="10" relative="1" as="geometry">
            <mxPoint x="510" y="220" as="sourcePoint" />
            <Array as="points">
              <mxPoint x="500" y="290" />
              <mxPoint x="490" y="310" />
              <mxPoint x="460" y="220" />
            </Array>
            <mxPoint as="offset" />
          </mxGeometry>
        </mxCell>
        <mxCell id="7baba1c4bc27f4b0-11" value="工单信息" style="html=1;verticalAlign=bottom;endArrow=block;entryX=0;entryY=0;labelBackgroundColor=none;fontFamily=Verdana;fontSize=12;edgeStyle=elbowEdgeStyle;elbow=vertical;" parent="1" source="7baba1c4bc27f4b0-9" target="7baba1c4bc27f4b0-10" edge="1">
          <mxGeometry relative="1" as="geometry">
            <mxPoint x="220" y="190" as="sourcePoint" />
          </mxGeometry>
        </mxCell>
        <mxCell id="7baba1c4bc27f4b0-40" value="用户" style="shape=note;whiteSpace=wrap;html=1;size=14;verticalAlign=top;align=left;spacingTop=-6;rounded=0;shadow=0;comic=0;labelBackgroundColor=none;strokeWidth=1;fontFamily=Verdana;fontSize=12" parent="1" vertex="1">
          <mxGeometry x="100" y="30" width="100" height="35" as="geometry" />
        </mxCell>
        <mxCell id="7baba1c4bc27f4b0-41" value="工单Controller&lt;br&gt;层" style="shape=note;whiteSpace=wrap;html=1;size=14;verticalAlign=top;align=left;spacingTop=-6;rounded=0;shadow=0;comic=0;labelBackgroundColor=none;strokeWidth=1;fontFamily=Verdana;fontSize=12" parent="1" vertex="1">
          <mxGeometry x="240" y="30" width="100" height="35" as="geometry" />
        </mxCell>
        <mxCell id="7baba1c4bc27f4b0-42" value="工单service层" style="shape=note;whiteSpace=wrap;html=1;size=14;verticalAlign=top;align=left;spacingTop=-6;rounded=0;shadow=0;comic=0;labelBackgroundColor=none;strokeWidth=1;fontFamily=Verdana;fontSize=12" parent="1" vertex="1">
          <mxGeometry x="400" y="30" width="100" height="35" as="geometry" />
        </mxCell>
        <mxCell id="7baba1c4bc27f4b0-43" value="测试模板service层" style="shape=note;whiteSpace=wrap;html=1;size=14;verticalAlign=top;align=left;spacingTop=-6;rounded=0;shadow=0;comic=0;labelBackgroundColor=none;strokeWidth=1;fontFamily=Verdana;fontSize=12" parent="1" vertex="1">
          <mxGeometry x="540" y="30" width="100" height="35" as="geometry" />
        </mxCell>
        <mxCell id="7baba1c4bc27f4b0-44" value="数据库" style="shape=note;whiteSpace=wrap;html=1;size=14;verticalAlign=top;align=left;spacingTop=-6;rounded=0;shadow=0;comic=0;labelBackgroundColor=none;strokeWidth=1;fontFamily=Verdana;fontSize=12" parent="1" vertex="1">
          <mxGeometry x="680" y="30" width="100" height="35" as="geometry" />
        </mxCell>
        <mxCell id="Xi-gDiXlF3DrVJnjN7YP-3" value="" style="html=1;points=[];perimeter=orthogonalPerimeter;outlineConnect=0;targetShapes=umlLifeline;portConstraint=eastwest;newEdgeStyle={&quot;edgeStyle&quot;:&quot;elbowEdgeStyle&quot;,&quot;elbow&quot;:&quot;vertical&quot;,&quot;curved&quot;:0,&quot;rounded&quot;:0};" vertex="1" parent="1">
          <mxGeometry x="290" y="220" width="10" height="40" as="geometry" />
        </mxCell>
        <mxCell id="Xi-gDiXlF3DrVJnjN7YP-4" value="参数校验" style="html=1;align=left;spacingLeft=2;endArrow=block;rounded=0;edgeStyle=orthogonalEdgeStyle;curved=0;rounded=0;" edge="1" target="Xi-gDiXlF3DrVJnjN7YP-3" parent="1">
          <mxGeometry relative="1" as="geometry">
            <mxPoint x="295" y="200" as="sourcePoint" />
            <Array as="points">
              <mxPoint x="330" y="200" />
              <mxPoint x="330" y="230" />
            </Array>
          </mxGeometry>
        </mxCell>
        <mxCell id="Xi-gDiXlF3DrVJnjN7YP-6" value="工单信息" style="html=1;verticalAlign=bottom;endArrow=block;edgeStyle=elbowEdgeStyle;elbow=vertical;curved=0;rounded=0;" edge="1" parent="1" source="7baba1c4bc27f4b0-2" target="7baba1c4bc27f4b0-3">
          <mxGeometry x="-0.2424" y="10" width="80" relative="1" as="geometry">
            <mxPoint x="300" y="280" as="sourcePoint" />
            <mxPoint x="380" y="280" as="targetPoint" />
            <Array as="points">
              <mxPoint x="350" y="280" />
              <mxPoint x="370" y="310" />
              <mxPoint x="370" y="340" />
            </Array>
            <mxPoint as="offset" />
          </mxGeometry>
        </mxCell>
        <mxCell id="Xi-gDiXlF3DrVJnjN7YP-8" value="产品信息" style="html=1;verticalAlign=bottom;endArrow=open;dashed=1;endSize=8;edgeStyle=elbowEdgeStyle;elbow=vertical;curved=0;rounded=0;" edge="1" parent="1" target="7baba1c4bc27f4b0-3">
          <mxGeometry x="0.0758" y="20" relative="1" as="geometry">
            <mxPoint x="580" y="310" as="sourcePoint" />
            <mxPoint x="500" y="310" as="targetPoint" />
            <mxPoint as="offset" />
          </mxGeometry>
        </mxCell>
        <mxCell id="Xi-gDiXlF3DrVJnjN7YP-11" value="重新封装后的工单信息数据" style="html=1;verticalAlign=bottom;endArrow=block;edgeStyle=elbowEdgeStyle;elbow=vertical;curved=0;rounded=0;" edge="1" parent="1" target="7baba1c4bc27f4b0-5">
          <mxGeometry width="80" relative="1" as="geometry">
            <mxPoint x="450" y="490" as="sourcePoint" />
            <mxPoint x="530" y="490" as="targetPoint" />
          </mxGeometry>
        </mxCell>
        <mxCell id="Xi-gDiXlF3DrVJnjN7YP-12" value="数据库保存结果" style="html=1;verticalAlign=bottom;endArrow=open;dashed=1;endSize=8;edgeStyle=elbowEdgeStyle;elbow=vertical;curved=0;rounded=0;" edge="1" parent="1" target="7baba1c4bc27f4b0-2">
          <mxGeometry x="-0.256" y="-4" relative="1" as="geometry">
            <mxPoint x="720" y="540" as="sourcePoint" />
            <mxPoint x="640" y="540" as="targetPoint" />
            <mxPoint as="offset" />
          </mxGeometry>
        </mxCell>
        <mxCell id="Xi-gDiXlF3DrVJnjN7YP-15" value="重新封装结果并返回" style="html=1;verticalAlign=bottom;endArrow=open;dashed=1;endSize=8;edgeStyle=elbowEdgeStyle;elbow=vertical;curved=0;rounded=0;" edge="1" parent="1" target="7baba1c4bc27f4b0-8">
          <mxGeometry relative="1" as="geometry">
            <mxPoint x="280" y="590" as="sourcePoint" />
            <mxPoint x="200" y="590" as="targetPoint" />
          </mxGeometry>
        </mxCell>
      </root>
    </mxGraphModel>
  </diagram>
  <diagram name="增加产品模板" id="bT5V-Dz6UD9b97X8d4uQ">
    <mxGraphModel dx="1399" dy="754" grid="0" gridSize="10" guides="1" tooltips="1" connect="1" arrows="1" fold="1" page="0" pageScale="1" pageWidth="1100" pageHeight="850" background="none" math="0" shadow="0">
      <root>
        <mxCell id="dgywcI7EhyUf56Bn7VVt-0" />
        <mxCell id="dgywcI7EhyUf56Bn7VVt-1" parent="dgywcI7EhyUf56Bn7VVt-0" />
        <mxCell id="dgywcI7EhyUf56Bn7VVt-2" value=":Contoller" style="shape=umlLifeline;perimeter=lifelinePerimeter;whiteSpace=wrap;html=1;container=1;collapsible=0;recursiveResize=0;outlineConnect=0;rounded=1;shadow=0;comic=0;labelBackgroundColor=none;strokeWidth=1;fontFamily=Verdana;fontSize=12;align=center;" vertex="1" parent="dgywcI7EhyUf56Bn7VVt-1">
          <mxGeometry x="240" y="80" width="100" height="580" as="geometry" />
        </mxCell>
        <mxCell id="dgywcI7EhyUf56Bn7VVt-3" value="" style="html=1;points=[];perimeter=orthogonalPerimeter;rounded=0;shadow=0;comic=0;labelBackgroundColor=none;strokeWidth=1;fontFamily=Verdana;fontSize=12;align=center;" vertex="1" parent="dgywcI7EhyUf56Bn7VVt-2">
          <mxGeometry x="45" y="100" width="10" height="430" as="geometry" />
        </mxCell>
        <mxCell id="NBMzofDmV-ny7XAveUDi-11" value="return" style="html=1;verticalAlign=bottom;endArrow=open;dashed=1;endSize=8;edgeStyle=elbowEdgeStyle;elbow=vertical;curved=0;rounded=0;" edge="1" parent="dgywcI7EhyUf56Bn7VVt-2" source="dgywcI7EhyUf56Bn7VVt-4">
          <mxGeometry relative="1" as="geometry">
            <mxPoint x="135" y="510" as="sourcePoint" />
            <mxPoint x="55" y="510" as="targetPoint" />
          </mxGeometry>
        </mxCell>
        <mxCell id="dgywcI7EhyUf56Bn7VVt-4" value=":Service" style="shape=umlLifeline;perimeter=lifelinePerimeter;whiteSpace=wrap;html=1;container=1;collapsible=0;recursiveResize=0;outlineConnect=0;rounded=1;shadow=0;comic=0;labelBackgroundColor=none;strokeWidth=1;fontFamily=Verdana;fontSize=12;align=center;" vertex="1" parent="dgywcI7EhyUf56Bn7VVt-1">
          <mxGeometry x="400" y="80" width="100" height="580" as="geometry" />
        </mxCell>
        <mxCell id="dgywcI7EhyUf56Bn7VVt-5" value="" style="html=1;points=[];perimeter=orthogonalPerimeter;rounded=0;shadow=0;comic=0;labelBackgroundColor=none;strokeWidth=1;fontFamily=Verdana;fontSize=12;align=center;" vertex="1" parent="dgywcI7EhyUf56Bn7VVt-4">
          <mxGeometry x="45" y="120" width="10" height="410" as="geometry" />
        </mxCell>
        <mxCell id="NBMzofDmV-ny7XAveUDi-6" value="" style="html=1;points=[];perimeter=orthogonalPerimeter;outlineConnect=0;targetShapes=umlLifeline;portConstraint=eastwest;newEdgeStyle={&quot;edgeStyle&quot;:&quot;elbowEdgeStyle&quot;,&quot;elbow&quot;:&quot;vertical&quot;,&quot;curved&quot;:0,&quot;rounded&quot;:0};" vertex="1" parent="dgywcI7EhyUf56Bn7VVt-4">
          <mxGeometry x="53" y="412" width="10" height="40" as="geometry" />
        </mxCell>
        <mxCell id="NBMzofDmV-ny7XAveUDi-7" value="self call" style="html=1;align=left;spacingLeft=2;endArrow=block;rounded=0;edgeStyle=orthogonalEdgeStyle;curved=0;rounded=0;" edge="1" target="NBMzofDmV-ny7XAveUDi-6" parent="dgywcI7EhyUf56Bn7VVt-4">
          <mxGeometry relative="1" as="geometry">
            <mxPoint x="58" y="392" as="sourcePoint" />
            <Array as="points">
              <mxPoint x="88" y="422" />
            </Array>
          </mxGeometry>
        </mxCell>
        <mxCell id="NBMzofDmV-ny7XAveUDi-8" value="dispatch" style="html=1;verticalAlign=bottom;endArrow=block;edgeStyle=elbowEdgeStyle;elbow=vertical;curved=0;rounded=0;" edge="1" parent="dgywcI7EhyUf56Bn7VVt-4" target="NBMzofDmV-ny7XAveUDi-9">
          <mxGeometry width="80" relative="1" as="geometry">
            <mxPoint x="57" y="466" as="sourcePoint" />
            <mxPoint x="488" y="466" as="targetPoint" />
          </mxGeometry>
        </mxCell>
        <mxCell id="dgywcI7EhyUf56Bn7VVt-8" value=":Service" style="shape=umlLifeline;perimeter=lifelinePerimeter;whiteSpace=wrap;html=1;container=1;collapsible=0;recursiveResize=0;outlineConnect=0;rounded=1;shadow=0;comic=0;labelBackgroundColor=none;strokeWidth=1;fontFamily=Verdana;fontSize=12;align=center;" vertex="1" parent="dgywcI7EhyUf56Bn7VVt-1">
          <mxGeometry x="540" y="80" width="100" height="580" as="geometry" />
        </mxCell>
        <mxCell id="NBMzofDmV-ny7XAveUDi-1" value="dispatch" style="html=1;verticalAlign=bottom;endArrow=block;edgeStyle=elbowEdgeStyle;elbow=vertical;curved=0;rounded=0;" edge="1" parent="dgywcI7EhyUf56Bn7VVt-8" target="NBMzofDmV-ny7XAveUDi-2">
          <mxGeometry width="80" relative="1" as="geometry">
            <mxPoint x="52" y="217" as="sourcePoint" />
            <mxPoint x="132" y="217" as="targetPoint" />
          </mxGeometry>
        </mxCell>
        <mxCell id="dgywcI7EhyUf56Bn7VVt-25" value="重新封装后的工单信息数据" style="html=1;verticalAlign=bottom;endArrow=block;edgeStyle=elbowEdgeStyle;elbow=vertical;curved=0;rounded=0;" edge="1" parent="dgywcI7EhyUf56Bn7VVt-8">
          <mxGeometry width="80" relative="1" as="geometry">
            <mxPoint x="-86" y="301.53" as="sourcePoint" />
            <mxPoint x="200" y="301.53" as="targetPoint" />
          </mxGeometry>
        </mxCell>
        <mxCell id="dgywcI7EhyUf56Bn7VVt-9" value=":Database" style="shape=umlLifeline;perimeter=lifelinePerimeter;whiteSpace=wrap;html=1;container=1;collapsible=0;recursiveResize=0;outlineConnect=0;rounded=1;shadow=0;comic=0;labelBackgroundColor=none;strokeWidth=1;fontFamily=Verdana;fontSize=12;align=center;" vertex="1" parent="dgywcI7EhyUf56Bn7VVt-1">
          <mxGeometry x="847" y="81" width="100" height="580" as="geometry" />
        </mxCell>
        <mxCell id="dgywcI7EhyUf56Bn7VVt-10" value="" style="html=1;points=[];perimeter=orthogonalPerimeter;rounded=0;shadow=0;comic=0;labelBackgroundColor=none;strokeWidth=1;fontFamily=Verdana;fontSize=12;align=center;" vertex="1" parent="dgywcI7EhyUf56Bn7VVt-9">
          <mxGeometry x="45" y="285" width="10" height="100" as="geometry" />
        </mxCell>
        <mxCell id="NBMzofDmV-ny7XAveUDi-2" value="" style="html=1;points=[];perimeter=orthogonalPerimeter;outlineConnect=0;targetShapes=umlLifeline;portConstraint=eastwest;newEdgeStyle={&quot;edgeStyle&quot;:&quot;elbowEdgeStyle&quot;,&quot;elbow&quot;:&quot;vertical&quot;,&quot;curved&quot;:0,&quot;rounded&quot;:0};" vertex="1" parent="dgywcI7EhyUf56Bn7VVt-9">
          <mxGeometry x="45" y="184" width="10" height="80" as="geometry" />
        </mxCell>
        <mxCell id="NBMzofDmV-ny7XAveUDi-9" value="" style="html=1;points=[];perimeter=orthogonalPerimeter;outlineConnect=0;targetShapes=umlLifeline;portConstraint=eastwest;newEdgeStyle={&quot;edgeStyle&quot;:&quot;elbowEdgeStyle&quot;,&quot;elbow&quot;:&quot;vertical&quot;,&quot;curved&quot;:0,&quot;rounded&quot;:0};" vertex="1" parent="dgywcI7EhyUf56Bn7VVt-9">
          <mxGeometry x="45" y="449" width="10" height="80" as="geometry" />
        </mxCell>
        <mxCell id="dgywcI7EhyUf56Bn7VVt-11" value=":User" style="shape=umlLifeline;perimeter=lifelinePerimeter;whiteSpace=wrap;html=1;container=1;collapsible=0;recursiveResize=0;outlineConnect=0;rounded=1;shadow=0;comic=0;labelBackgroundColor=none;strokeWidth=1;fontFamily=Verdana;fontSize=12;align=center;" vertex="1" parent="dgywcI7EhyUf56Bn7VVt-1">
          <mxGeometry x="100" y="80" width="100" height="580" as="geometry" />
        </mxCell>
        <mxCell id="dgywcI7EhyUf56Bn7VVt-12" value="" style="html=1;points=[];perimeter=orthogonalPerimeter;rounded=0;shadow=0;comic=0;labelBackgroundColor=none;strokeWidth=1;fontFamily=Verdana;fontSize=12;align=center;" vertex="1" parent="dgywcI7EhyUf56Bn7VVt-11">
          <mxGeometry x="45" y="100" width="10" height="440" as="geometry" />
        </mxCell>
        <mxCell id="dgywcI7EhyUf56Bn7VVt-13" value="" style="html=1;points=[];perimeter=orthogonalPerimeter;rounded=0;shadow=0;comic=0;labelBackgroundColor=none;strokeWidth=1;fontFamily=Verdana;fontSize=12;align=center;" vertex="1" parent="dgywcI7EhyUf56Bn7VVt-1">
          <mxGeometry x="585" y="220" width="10" height="137" as="geometry" />
        </mxCell>
        <mxCell id="dgywcI7EhyUf56Bn7VVt-14" value="构建寄存器do" style="html=1;verticalAlign=bottom;endArrow=block;labelBackgroundColor=none;fontFamily=Verdana;fontSize=12;edgeStyle=elbowEdgeStyle;elbow=vertical;" edge="1" parent="dgywcI7EhyUf56Bn7VVt-1" source="dgywcI7EhyUf56Bn7VVt-5" target="dgywcI7EhyUf56Bn7VVt-13">
          <mxGeometry y="10" relative="1" as="geometry">
            <mxPoint x="510" y="220" as="sourcePoint" />
            <Array as="points">
              <mxPoint x="500" y="290" />
              <mxPoint x="490" y="310" />
              <mxPoint x="460" y="220" />
            </Array>
            <mxPoint as="offset" />
          </mxGeometry>
        </mxCell>
        <mxCell id="dgywcI7EhyUf56Bn7VVt-15" value="模板信息" style="html=1;verticalAlign=bottom;endArrow=block;entryX=0;entryY=0;labelBackgroundColor=none;fontFamily=Verdana;fontSize=12;edgeStyle=elbowEdgeStyle;elbow=vertical;" edge="1" parent="dgywcI7EhyUf56Bn7VVt-1" source="dgywcI7EhyUf56Bn7VVt-12" target="dgywcI7EhyUf56Bn7VVt-3">
          <mxGeometry relative="1" as="geometry">
            <mxPoint x="220" y="190" as="sourcePoint" />
          </mxGeometry>
        </mxCell>
        <mxCell id="dgywcI7EhyUf56Bn7VVt-16" value="用户" style="shape=note;whiteSpace=wrap;html=1;size=14;verticalAlign=top;align=left;spacingTop=-6;rounded=0;shadow=0;comic=0;labelBackgroundColor=none;strokeWidth=1;fontFamily=Verdana;fontSize=12" vertex="1" parent="dgywcI7EhyUf56Bn7VVt-1">
          <mxGeometry x="100" y="30" width="100" height="35" as="geometry" />
        </mxCell>
        <mxCell id="dgywcI7EhyUf56Bn7VVt-17" value="产品模板Controller层" style="shape=note;whiteSpace=wrap;html=1;size=14;verticalAlign=top;align=left;spacingTop=-6;rounded=0;shadow=0;comic=0;labelBackgroundColor=none;strokeWidth=1;fontFamily=Verdana;fontSize=12" vertex="1" parent="dgywcI7EhyUf56Bn7VVt-1">
          <mxGeometry x="240" y="30" width="100" height="35" as="geometry" />
        </mxCell>
        <mxCell id="dgywcI7EhyUf56Bn7VVt-18" value="产品模板&lt;br&gt;service层" style="shape=note;whiteSpace=wrap;html=1;size=14;verticalAlign=top;align=left;spacingTop=-6;rounded=0;shadow=0;comic=0;labelBackgroundColor=none;strokeWidth=1;fontFamily=Verdana;fontSize=12" vertex="1" parent="dgywcI7EhyUf56Bn7VVt-1">
          <mxGeometry x="400" y="30" width="100" height="35" as="geometry" />
        </mxCell>
        <mxCell id="dgywcI7EhyUf56Bn7VVt-19" value="寄存器&lt;br&gt;service层" style="shape=note;whiteSpace=wrap;html=1;size=14;verticalAlign=top;align=left;spacingTop=-6;rounded=0;shadow=0;comic=0;labelBackgroundColor=none;strokeWidth=1;fontFamily=Verdana;fontSize=12" vertex="1" parent="dgywcI7EhyUf56Bn7VVt-1">
          <mxGeometry x="540" y="30" width="100" height="35" as="geometry" />
        </mxCell>
        <mxCell id="dgywcI7EhyUf56Bn7VVt-20" value="数据库" style="shape=note;whiteSpace=wrap;html=1;size=14;verticalAlign=top;align=left;spacingTop=-6;rounded=0;shadow=0;comic=0;labelBackgroundColor=none;strokeWidth=1;fontFamily=Verdana;fontSize=12" vertex="1" parent="dgywcI7EhyUf56Bn7VVt-1">
          <mxGeometry x="847" y="31" width="100" height="35" as="geometry" />
        </mxCell>
        <mxCell id="dgywcI7EhyUf56Bn7VVt-21" value="" style="html=1;points=[];perimeter=orthogonalPerimeter;outlineConnect=0;targetShapes=umlLifeline;portConstraint=eastwest;newEdgeStyle={&quot;edgeStyle&quot;:&quot;elbowEdgeStyle&quot;,&quot;elbow&quot;:&quot;vertical&quot;,&quot;curved&quot;:0,&quot;rounded&quot;:0};" vertex="1" parent="dgywcI7EhyUf56Bn7VVt-1">
          <mxGeometry x="290" y="220" width="10" height="40" as="geometry" />
        </mxCell>
        <mxCell id="dgywcI7EhyUf56Bn7VVt-22" value="参数校验" style="html=1;align=left;spacingLeft=2;endArrow=block;rounded=0;edgeStyle=orthogonalEdgeStyle;curved=0;rounded=0;" edge="1" parent="dgywcI7EhyUf56Bn7VVt-1" target="dgywcI7EhyUf56Bn7VVt-21">
          <mxGeometry relative="1" as="geometry">
            <mxPoint x="295" y="200" as="sourcePoint" />
            <Array as="points">
              <mxPoint x="330" y="200" />
              <mxPoint x="330" y="230" />
            </Array>
          </mxGeometry>
        </mxCell>
        <mxCell id="dgywcI7EhyUf56Bn7VVt-23" value="模板信息" style="html=1;verticalAlign=bottom;endArrow=block;edgeStyle=elbowEdgeStyle;elbow=vertical;curved=0;rounded=0;" edge="1" parent="dgywcI7EhyUf56Bn7VVt-1" source="dgywcI7EhyUf56Bn7VVt-2" target="dgywcI7EhyUf56Bn7VVt-4">
          <mxGeometry x="-0.2424" y="10" width="80" relative="1" as="geometry">
            <mxPoint x="300" y="280" as="sourcePoint" />
            <mxPoint x="380" y="280" as="targetPoint" />
            <Array as="points">
              <mxPoint x="350" y="280" />
              <mxPoint x="370" y="310" />
              <mxPoint x="370" y="340" />
            </Array>
            <mxPoint as="offset" />
          </mxGeometry>
        </mxCell>
        <mxCell id="dgywcI7EhyUf56Bn7VVt-26" value="保存结果" style="html=1;verticalAlign=bottom;endArrow=open;dashed=1;endSize=8;edgeStyle=elbowEdgeStyle;elbow=vertical;curved=0;rounded=0;exitX=-0.317;exitY=0.722;exitDx=0;exitDy=0;exitPerimeter=0;" edge="1" parent="dgywcI7EhyUf56Bn7VVt-1" target="2dJYdEgUtNvVXC7ZkAGB-1" source="dgywcI7EhyUf56Bn7VVt-10">
          <mxGeometry x="-0.1128" y="-10" relative="1" as="geometry">
            <mxPoint x="715" y="543" as="sourcePoint" />
            <mxPoint x="640" y="540" as="targetPoint" />
            <mxPoint as="offset" />
          </mxGeometry>
        </mxCell>
        <mxCell id="dgywcI7EhyUf56Bn7VVt-27" value="重新封装结果并返回" style="html=1;verticalAlign=bottom;endArrow=open;dashed=1;endSize=8;edgeStyle=elbowEdgeStyle;elbow=vertical;curved=0;rounded=0;" edge="1" parent="dgywcI7EhyUf56Bn7VVt-1" target="dgywcI7EhyUf56Bn7VVt-11">
          <mxGeometry relative="1" as="geometry">
            <mxPoint x="280" y="590" as="sourcePoint" />
            <mxPoint x="200" y="590" as="targetPoint" />
          </mxGeometry>
        </mxCell>
        <mxCell id="2dJYdEgUtNvVXC7ZkAGB-1" value=":Service" style="shape=umlLifeline;perimeter=lifelinePerimeter;whiteSpace=wrap;html=1;container=1;collapsible=0;recursiveResize=0;outlineConnect=0;rounded=1;shadow=0;comic=0;labelBackgroundColor=none;strokeWidth=1;fontFamily=Verdana;fontSize=12;align=center;" vertex="1" parent="dgywcI7EhyUf56Bn7VVt-1">
          <mxGeometry x="695" y="80" width="100" height="580" as="geometry" />
        </mxCell>
        <mxCell id="2dJYdEgUtNvVXC7ZkAGB-2" value="" style="html=1;points=[];perimeter=orthogonalPerimeter;rounded=0;shadow=0;comic=0;labelBackgroundColor=none;strokeWidth=1;fontFamily=Verdana;fontSize=12;align=center;" vertex="1" parent="2dJYdEgUtNvVXC7ZkAGB-1">
          <mxGeometry x="45" y="282" width="10" height="100" as="geometry" />
        </mxCell>
        <mxCell id="NBMzofDmV-ny7XAveUDi-4" value="dispatch" style="html=1;verticalAlign=bottom;endArrow=block;edgeStyle=elbowEdgeStyle;elbow=vertical;curved=0;rounded=0;" edge="1" parent="2dJYdEgUtNvVXC7ZkAGB-1" target="dgywcI7EhyUf56Bn7VVt-9">
          <mxGeometry width="80" relative="1" as="geometry">
            <mxPoint x="56" y="309" as="sourcePoint" />
            <mxPoint x="136" y="309" as="targetPoint" />
          </mxGeometry>
        </mxCell>
        <mxCell id="2dJYdEgUtNvVXC7ZkAGB-3" value="测量模式参数&lt;br&gt;Service层" style="shape=note;whiteSpace=wrap;html=1;size=14;verticalAlign=top;align=left;spacingTop=-6;rounded=0;shadow=0;comic=0;labelBackgroundColor=none;strokeWidth=1;fontFamily=Verdana;fontSize=12" vertex="1" parent="dgywcI7EhyUf56Bn7VVt-1">
          <mxGeometry x="695" y="30" width="100" height="35" as="geometry" />
        </mxCell>
        <mxCell id="NBMzofDmV-ny7XAveUDi-0" value="return" style="html=1;verticalAlign=bottom;endArrow=open;dashed=1;endSize=8;edgeStyle=elbowEdgeStyle;elbow=vertical;curved=0;rounded=0;" edge="1" parent="dgywcI7EhyUf56Bn7VVt-1" target="dgywcI7EhyUf56Bn7VVt-4">
          <mxGeometry relative="1" as="geometry">
            <mxPoint x="581" y="328" as="sourcePoint" />
            <mxPoint x="501" y="328" as="targetPoint" />
          </mxGeometry>
        </mxCell>
        <mxCell id="NBMzofDmV-ny7XAveUDi-3" value="return" style="html=1;verticalAlign=bottom;endArrow=open;dashed=1;endSize=8;edgeStyle=elbowEdgeStyle;elbow=vertical;curved=0;rounded=0;" edge="1" parent="dgywcI7EhyUf56Bn7VVt-1" target="dgywcI7EhyUf56Bn7VVt-8">
          <mxGeometry relative="1" as="geometry">
            <mxPoint x="886" y="324" as="sourcePoint" />
            <mxPoint x="806" y="324" as="targetPoint" />
          </mxGeometry>
        </mxCell>
        <mxCell id="NBMzofDmV-ny7XAveUDi-5" value="return" style="html=1;verticalAlign=bottom;endArrow=open;dashed=1;endSize=8;edgeStyle=elbowEdgeStyle;elbow=vertical;curved=0;rounded=0;" edge="1" parent="dgywcI7EhyUf56Bn7VVt-1">
          <mxGeometry relative="1" as="geometry">
            <mxPoint x="740" y="446" as="sourcePoint" />
            <mxPoint x="460" y="446" as="targetPoint" />
          </mxGeometry>
        </mxCell>
        <mxCell id="NBMzofDmV-ny7XAveUDi-10" value="return" style="html=1;verticalAlign=bottom;endArrow=open;dashed=1;endSize=8;edgeStyle=elbowEdgeStyle;elbow=vertical;curved=0;rounded=0;" edge="1" parent="dgywcI7EhyUf56Bn7VVt-1">
          <mxGeometry relative="1" as="geometry">
            <mxPoint x="888" y="575" as="sourcePoint" />
            <mxPoint x="456" y="575" as="targetPoint" />
          </mxGeometry>
        </mxCell>
      </root>
    </mxGraphModel>
  </diagram>
</mxfile>
